<svg xmlns="http://www.w3.org/2000/svg" viewBox="-7 -7 1075.320068359375 341.06744384765625" width="1075.320068359375" height="341.06744384765625"><svg width="320.0000305175781" height="327.06744384765625" overflow="visible" viewBox="0 0 320.0000305175781 327.06744384765625" fill="none" stroke="currentColor" stroke-width="14" stroke-linecap="butt" x="0" y="0"><g transform="translate(-0.0007283982704393566 6.896655559539795)"><path d="M 34.822 259.651&#10;                A 160 160 0 0 1 210.828 8.288"/><path d="M 277.922 51.859&#10;                A 160 160 0 0 1 98.713 307.797"/><svg width="144" height="144" overflow="visible" viewBox="88 88 144 144" fill="none" stroke="currentColor" stroke-width="14" x="87" y="87"><circle r="72" cx="160" cy="160"/></svg><svg width="52" height="52" overflow="visible" viewBox="-26 -26 52 52" fill="currentColor" x="32.895076110455875" y="268.17076568794516"><circle r="26" cx="0" cy="0"/></svg><svg width="52" height="52" overflow="visible" viewBox="-26 -26 52 52" fill="currentColor" x="225.49935788252446" y="-6.896655414831287"><circle r="26" cx="0" cy="0"/></svg></g></svg><svg viewBox="0 0 710.3200073242188 163.49000549316406" width="710.3200073242188" height="163.49000549316406" fill="currentColor" overflow="visible" x="0" y="0"><g transform="translate(351.0000305175781 67.22621726989746)"><g transform="translate(-12.690000534057617 162.4499969482422)"><path d="M70.51 1.04Q53.87 1.04 40.77-6.45Q27.66-13.94 20.18-27.04Q12.69-40.14 12.69-56.78Q12.69-73.63 20.18-86.74Q27.66-99.84 40.77-107.33Q53.87-114.82 70.51-114.82Q87.15-114.82 100.15-107.33Q113.15-99.84 120.64-86.74Q128.13-73.63 128.34-56.78Q128.34-40.14 120.74-27.04Q113.15-13.94 100.15-6.45Q87.15 1.04 70.51 1.04M70.51-13.52Q82.58-13.52 92.14-19.14Q101.71-24.75 107.12-34.53Q112.53-44.30 112.53-56.78Q112.53-69.26 107.12-79.14Q101.71-89.02 92.14-94.64Q82.58-100.26 70.51-100.26Q58.45-100.26 48.88-94.64Q39.31-89.02 33.80-79.14Q28.29-69.26 28.29-56.78Q28.29-44.30 33.80-34.53Q39.31-24.75 48.88-19.14Q58.45-13.52 70.51-13.52M175.34-70.10L166.19-70.10Q166.82-82.99 172.95-93.18Q179.09-103.38 188.97-109.20Q198.85-115.02 210.91-115.02Q220.48-115.02 225.68-112.32Q230.88-109.62 229.63-104.42Q228.80-101.30 226.82-100.26Q224.85-99.22 222.04-99.42Q219.23-99.63 215.70-99.84Q204.05-100.88 195-97.45Q185.95-94.02 180.65-86.94Q175.34-79.87 175.34-70.10M167.44 0Q163.70 0 161.62-2.08Q159.54-4.16 159.54-7.90L159.54-105.87Q159.54-109.62 161.62-111.70Q163.70-113.78 167.44-113.78Q171.18-113.78 173.26-111.70Q175.34-109.62 175.34-105.87L175.34-7.90Q175.34-4.16 173.26-2.08Q171.18 0 167.44 0M312.42 1.04Q296.19 1.04 283.19-6.45Q270.19-13.94 262.60-26.94Q255.01-39.94 254.80-56.16L254.80-154.34Q254.80-158.08 256.98-160.26Q259.17-162.45 262.91-162.45Q266.45-162.45 268.63-160.26Q270.82-158.08 270.82-154.34L270.82-93.18Q277.68-102.96 289.02-108.89Q300.35-114.82 314.29-114.82Q330.30-114.82 342.99-107.22Q355.68-99.63 363.06-86.53Q370.45-73.42 370.45-56.99Q370.45-40.35 362.86-27.25Q355.26-14.14 342.16-6.55Q329.06 1.04 312.42 1.04M312.42-13.52Q324.48-13.52 334.05-19.24Q343.62-24.96 349.13-34.74Q354.64-44.51 354.64-56.99Q354.64-69.26 349.13-79.14Q343.62-89.02 334.05-94.64Q324.48-100.26 312.42-100.26Q300.56-100.26 290.99-94.64Q281.42-89.02 276.02-79.14Q270.61-69.26 270.61-56.99Q270.61-44.51 276.02-34.74Q281.42-24.96 290.99-19.24Q300.56-13.52 312.42-13.52M413.30 0Q409.55 0 407.37-2.18Q405.18-4.37 405.18-8.11L405.18-105.66Q405.18-109.41 407.37-111.59Q409.55-113.78 413.30-113.78Q416.83-113.78 419.02-111.59Q421.20-109.41 421.20-105.66L421.20-8.11Q421.20-4.37 419.02-2.18Q416.83 0 413.30 0M413.09-135.41Q408.51-135.41 405.18-138.74Q401.86-142.06 401.86-146.85Q401.86-152.05 405.29-155.06Q408.72-158.08 413.30-158.08Q417.66-158.08 421.10-155.06Q424.53-152.05 424.53-146.85Q424.53-142.06 421.20-138.74Q417.87-135.41 413.09-135.41M510.85 0L506.48 0Q495.46 0 486.82-5.20Q478.19-10.40 473.20-19.45Q468.21-28.50 468.21-40.14L468.21-141.86Q468.21-145.39 470.39-147.68Q472.58-149.97 476.11-149.97Q479.65-149.97 481.94-147.68Q484.22-145.39 484.22-141.86L484.22-40.14Q484.22-29.54 490.46-22.78Q496.70-16.02 506.48-16.02L512.10-16.02Q515.42-16.02 517.50-13.73Q519.58-11.44 519.58-7.90Q519.58-4.37 517.09-2.18Q514.59 0 510.85 0M507.73-95.68L454.69-95.68Q451.57-95.68 449.49-97.66Q447.41-99.63 447.41-102.54Q447.41-105.66 449.49-107.64Q451.57-109.62 454.69-109.62L507.73-109.62Q510.85-109.62 512.93-107.64Q515.01-105.66 515.01-102.54Q515.01-99.63 512.93-97.66Q510.85-95.68 507.73-95.68M595.71 1.04Q579.70 1.04 567.01-6.55Q554.32-14.14 546.94-27.25Q539.55-40.35 539.55-56.78Q539.55-73.42 547.14-86.53Q554.74-99.63 567.84-107.22Q580.94-114.82 597.38-114.82Q613.81-114.82 626.81-107.22Q639.81-99.63 647.40-86.53Q654.99-73.42 655.20-56.78L648.75-51.79Q648.75-36.82 641.78-24.86Q634.82-12.90 622.86-5.93Q610.90 1.04 595.71 1.04M597.38-13.52Q609.44-13.52 618.90-19.14Q628.37-24.75 633.88-34.63Q639.39-44.51 639.39-56.78Q639.39-69.26 633.88-79.04Q628.37-88.82 618.90-94.54Q609.44-100.26 597.38-100.26Q585.52-100.26 575.95-94.54Q566.38-88.82 560.77-79.04Q555.15-69.26 555.15-56.78Q555.15-44.51 560.77-34.63Q566.38-24.75 575.95-19.14Q585.52-13.52 597.38-13.52M647.09 0Q643.55 0 641.26-2.18Q638.98-4.37 638.98-7.90L638.98-43.47L642.93-59.90L655.20-56.78L655.20-7.90Q655.20-4.37 652.91-2.18Q650.62 0 647.09 0M713.65 0L710.94 0Q702.62 0 696.07-4.58Q689.52-9.15 685.88-17.26Q682.24-25.38 682.24-35.98L682.24-154.54Q682.24-158.08 684.42-160.26Q686.61-162.45 690.14-162.45Q693.68-162.45 695.86-160.26Q698.05-158.08 698.05-154.54L698.05-35.98Q698.05-27.04 701.69-21.42Q705.33-15.81 710.94-15.81L716.14-15.81Q719.26-15.81 721.14-13.62Q723.01-11.44 723.01-7.90Q723.01-4.37 720.41-2.18Q717.81 0 713.65 0"/></g></g></svg><svg viewBox="0 0.0000019073486328125 407.1300048828125 23.300003051757812" width="407.1300048828125" height="23.300003051757812" fill="currentColor" overflow="visible" x="0" y="0"><g transform="translate(351.0000305175781 259.8412265777588)"><g transform="translate(-1.5399999618530273 22.850000381469727)"><path d="M10.02 0.45Q7.58 0.45 5.66-0.42Q3.74-1.28 2.64-3.02Q1.54-4.77 1.54-7.39L1.54-8.06L4.19-8.06L4.19-7.39Q4.19-4.61 5.82-3.25Q7.46-1.89 10.02-1.89Q12.64-1.89 14.02-3.07Q15.39-4.26 15.39-6.05Q15.39-7.30 14.77-8.03Q14.14-8.77 13.02-9.23Q11.90-9.70 10.40-10.05L8.74-10.46Q6.78-10.98 5.28-11.71Q3.78-12.45 2.93-13.65Q2.08-14.85 2.08-16.74Q2.08-18.62 3.02-20Q3.97-21.38 5.68-22.11Q7.39-22.85 9.63-22.85Q11.90-22.85 13.71-22.06Q15.52-21.28 16.56-19.76Q17.60-18.24 17.60-15.94L17.60-14.59L14.94-14.59L14.94-15.94Q14.94-17.57 14.26-18.56Q13.57-19.55 12.37-20.03Q11.17-20.51 9.63-20.51Q7.42-20.51 6.08-19.54Q4.74-18.56 4.74-16.77Q4.74-15.58 5.31-14.85Q5.89-14.11 6.94-13.65Q8-13.18 9.47-12.83L11.14-12.42Q13.09-12 14.64-11.28Q16.19-10.56 17.12-9.33Q18.05-8.10 18.05-6.11Q18.05-4.13 17.06-2.66Q16.06-1.18 14.26-0.37Q12.45 0.45 10.02 0.45M29.41 0L26.72 0L26.72-19.97L19.52-19.97L19.52-22.40L36.61-22.40L36.61-19.97L29.41-19.97L29.41 0M38.66 0L35.87 0L42.78-22.40L47.52-22.40L54.43 0L51.65 0L49.92-5.66L40.38-5.66L38.66 0M44.93-20.77L41.06-8.10L49.22-8.10L45.38-20.77L44.93-20.77M63.58 0L60.90 0L60.90-19.97L53.70-19.97L53.70-22.40L70.78-22.40L70.78-19.97L63.58-19.97L63.58 0M88.16 0L74.21 0L74.21-22.40L88-22.40L88-19.97L76.90-19.97L76.90-12.48L87.10-12.48L87.10-10.05L76.90-10.05L76.90-2.43L88.16-2.43L88.16 0M103.65-4.45Q102.59-4.45 101.71-4.94Q100.83-5.44 100.32-6.30Q99.81-7.17 99.81-8.22Q99.81-9.31 100.32-10.18Q100.83-11.04 101.70-11.54Q102.56-12.03 103.65-12.03Q104.74-12.03 105.62-11.54Q106.50-11.04 106.99-10.18Q107.49-9.31 107.49-8.22Q107.49-7.14 106.98-6.27Q106.46-5.41 105.58-4.93Q104.70-4.45 103.65-4.45M122.88 0L120.19 0L120.19-22.40L133.73-22.40L133.73-19.97L122.88-19.97L122.88-12.45L132.86-12.45L132.86-10.02L122.88-10.02L122.88 0M151.49 0L137.47 0L137.47-22.40L140.16-22.40L140.16-2.43L151.49-2.43L151.49 0M162.43 0.45Q158.43 0.45 156.05-1.87Q153.66-4.19 153.66-8.64L153.66-13.76Q153.66-18.21 156.05-20.53Q158.43-22.85 162.43-22.85Q166.46-22.85 168.85-20.53Q171.23-18.21 171.23-13.76L171.23-8.64Q171.23-4.19 168.85-1.87Q166.46 0.45 162.43 0.45M162.43-1.95Q165.34-1.95 166.94-3.70Q168.54-5.44 168.54-8.54L168.54-13.86Q168.54-16.96 166.94-18.70Q165.34-20.45 162.43-20.45Q159.55-20.45 157.95-18.70Q156.35-16.96 156.35-13.86L156.35-8.54Q156.35-5.44 157.95-3.70Q159.55-1.95 162.43-1.95M182.59 0L177.76 0L174.11-22.40L176.80-22.40L179.97-1.73L180.42-1.73L184.54-22.40L189.34-22.40L193.44-1.73L193.89-1.73L197.06-22.40L199.74-22.40L196.10 0L191.30 0L187.17-20.80L186.72-20.80L182.59 0M214.69-4.45Q213.63-4.45 212.75-4.94Q211.87-5.44 211.36-6.30Q210.85-7.17 210.85-8.22Q210.85-9.31 211.36-10.18Q211.87-11.04 212.74-11.54Q213.60-12.03 214.69-12.03Q215.78-12.03 216.66-11.54Q217.54-11.04 218.03-10.18Q218.53-9.31 218.53-8.22Q218.53-7.14 218.02-6.27Q217.50-5.41 216.62-4.93Q215.74-4.45 214.69-4.45M245.18 0L231.23 0L231.23-22.40L245.02-22.40L245.02-19.97L233.92-19.97L233.92-12.48L244.13-12.48L244.13-10.05L233.92-10.05L233.92-2.43L245.18-2.43L245.18 0M250.85 0L247.71 0L254.94-11.30L247.81-22.40L250.98-22.40L256.67-13.15L257.09-13.15L262.82-22.40L265.95-22.40L258.85-11.30L266.08 0L262.94 0L257.09-9.44L256.67-9.44L250.85 0M272.35 0L269.66 0L269.66-22.40L278.24-22.40Q280.26-22.40 281.84-21.62Q283.42-20.83 284.35-19.39Q285.28-17.95 285.28-15.90L285.28-15.49Q285.28-13.47 284.34-12.02Q283.39-10.56 281.79-9.79Q280.19-9.02 278.24-9.02L272.35-9.02L272.35 0M272.35-19.97L272.35-11.46L277.95-11.46Q280.10-11.46 281.34-12.53Q282.59-13.60 282.59-15.55L282.59-15.87Q282.59-17.82 281.36-18.90Q280.13-19.97 277.95-19.97L272.35-19.97M302.85 0L288.90 0L288.90-22.40L302.69-22.40L302.69-19.97L291.58-19.97L291.58-12.48L301.79-12.48L301.79-10.05L291.58-10.05L291.58-2.43L302.85-2.43L302.85 0M309.60 0L306.91 0L306.91-22.40L315.97-22.40Q318.05-22.40 319.63-21.68Q321.22-20.96 322.11-19.63Q323.01-18.30 323.01-16.45L323.01-16.10Q323.01-13.89 321.95-12.61Q320.90-11.33 319.46-10.88L319.46-10.43Q320.61-10.40 321.36-9.68Q322.11-8.96 322.11-7.52L322.11 0L319.46 0L319.46-7.20Q319.46-8.16 318.93-8.67Q318.40-9.18 317.34-9.18L309.60-9.18L309.60 0M309.60-19.97L309.60-11.62L315.71-11.62Q317.92-11.62 319.12-12.69Q320.32-13.76 320.32-15.68L320.32-15.90Q320.32-17.82 319.14-18.90Q317.95-19.97 315.71-19.97L309.60-19.97M329.79 0L327.10 0L327.10-22.40L329.79-22.40L329.79 0M348.86 0L334.91 0L334.91-22.40L348.70-22.40L348.70-19.97L337.60-19.97L337.60-12.48L347.81-12.48L347.81-10.05L337.60-10.05L337.60-2.43L348.86-2.43L348.86 0M355.58 0L352.93 0L352.93-22.40L358.14-22.40L365.95-1.70L366.37-1.70L366.37-22.40L369.02-22.40L369.02 0L363.81 0L356.03-20.74L355.58-20.74L355.58 0M382.27 0.45Q378.27 0.45 375.90-1.87Q373.54-4.19 373.54-8.64L373.54-13.76Q373.54-18.21 375.90-20.53Q378.27-22.85 382.27-22.85Q386.24-22.85 388.37-20.64Q390.50-18.43 390.50-14.59L390.50-14.43L387.84-14.43L387.84-14.69Q387.84-17.22 386.48-18.83Q385.12-20.45 382.27-20.45Q379.42-20.45 377.82-18.70Q376.22-16.96 376.22-13.82L376.22-8.58Q376.22-5.44 377.82-3.70Q379.42-1.95 382.27-1.95Q385.12-1.95 386.48-3.57Q387.84-5.18 387.84-7.71L387.84-8.22L390.50-8.22L390.50-7.81Q390.50-3.97 388.37-1.76Q386.24 0.45 382.27 0.45M408.67 0L394.72 0L394.72-22.40L408.51-22.40L408.51-19.97L397.41-19.97L397.41-12.48L407.62-12.48L407.62-10.05L397.41-10.05L397.41-2.43L408.67-2.43"/></g></g></svg></svg>